<svg width="89" height="73" viewBox="0 0 89 73" fill="none" xmlns="http://www.w3.org/2000/svg">
<path d="M6.93 56V38.09H0.81V35H16.92V38.09H10.77V56H6.93ZM20.0405 62.6L23.4905 55.01H22.5905L16.8005 41.12H20.9705L25.1405 51.59L29.4905 41.12H33.5705L24.1205 62.6H20.0405ZM36.0809 56V41.12H39.4709L39.8009 43.13C40.2809 42.41 40.9109 41.84 41.6909 41.42C42.4909 40.98 43.4109 40.76 44.4509 40.76C46.7509 40.76 48.3809 41.65 49.3409 43.43C49.8809 42.61 50.6009 41.96 51.5009 41.48C52.4209 41 53.4209 40.76 54.5009 40.76C56.4409 40.76 57.9309 41.34 58.9709 42.5C60.0109 43.66 60.5309 45.36 60.5309 47.6V56H56.6909V47.96C56.6909 46.68 56.4409 45.7 55.9409 45.02C55.4609 44.34 54.7109 44 53.6909 44C52.6509 44 51.8109 44.38 51.1709 45.14C50.5509 45.9 50.2409 46.96 50.2409 48.32V56H46.4009V47.96C46.4009 46.68 46.1509 45.7 45.6509 45.02C45.1509 44.34 44.3809 44 43.3409 44C42.3209 44 41.4909 44.38 40.8509 45.14C40.2309 45.9 39.9209 46.96 39.9209 48.32V56H36.0809ZM64.1766 56V41.12H67.5966L67.9566 43.91C68.4966 42.95 69.2266 42.19 70.1466 41.63C71.0866 41.05 72.1866 40.76 73.4466 40.76V44.81H72.3666C71.5266 44.81 70.7766 44.94 70.1166 45.2C69.4566 45.46 68.9366 45.91 68.5566 46.55C68.1966 47.19 68.0166 48.08 68.0166 49.22V56H64.1766Z" fill="white"/>
<path d="M81.72 56.392C80.4133 56.392 79.3307 55.9813 78.472 55.16C77.6507 54.3387 77.24 53.3493 77.24 52.192C77.24 50.9973 77.6507 49.9893 78.472 49.168C79.3307 48.3467 80.4133 47.936 81.72 47.936C83.0267 47.936 84.0907 48.3467 84.912 49.168C85.7707 49.9893 86.2 50.9973 86.2 52.192C86.2 53.3493 85.7707 54.3387 84.912 55.16C84.0907 55.9813 83.0267 56.392 81.72 56.392Z" fill="#5BFFA7"/>
</svg>
